<svg width="36" height="36" viewBox="0 0 36 36" fill="none" xmlns="http://www.w3.org/2000/svg">
<path d="M18 1C27.3888 1 35 8.61116 35 18C35 27.3888 27.3888 35 18 35C8.61116 35 1 27.3888 1 18C1 8.61116 8.61116 1 18 1Z" stroke="#0FA958" stroke-width="2"/>
<path d="M32 18C32 10.268 25.732 4 18 4C10.268 4 4 10.268 4 18C4 25.732 10.268 32 18 32C25.732 32 32 25.732 32 18Z" fill="#0FA958"/>
<path d="M12.5675 19.7053C12.5675 20.0274 12.6244 20.3301 12.7383 20.6135C12.8521 20.8841 13.0039 21.1224 13.1937 21.3285C13.3961 21.5346 13.6301 21.6957 13.8958 21.8116C14.1741 21.9275 14.4714 21.9855 14.7877 21.9855C15.0913 21.9855 15.3759 21.9275 15.6416 21.8116C15.9199 21.6957 16.1539 21.5346 16.3437 21.3285C16.5461 21.1224 16.7042 20.8841 16.8181 20.6135C16.9446 20.343 17.0078 20.0531 17.0078 19.744C17.0078 19.4348 16.9446 19.1449 16.8181 18.8744C16.7042 18.591 16.5461 18.3462 16.3437 18.1401C16.1539 17.934 15.9199 17.7729 15.6416 17.657C15.3759 17.5411 15.0913 17.4831 14.7877 17.4831C14.4714 17.4831 14.1741 17.5411 13.8958 17.657C13.6301 17.7729 13.3961 17.934 13.1937 18.1401C13.0039 18.3462 12.8521 18.5845 12.7383 18.8551C12.6244 19.1127 12.5675 19.3961 12.5675 19.7053ZM16.894 14.7778H20.3476V24.6908H16.894V23.5894C16.1603 24.5298 15.1672 25 13.9148 25C13.2063 25 12.5548 24.8712 11.9602 24.6135C11.3657 24.343 10.847 23.9694 10.4042 23.4928C9.96145 23.0161 9.61356 22.4557 9.36054 21.8116C9.12018 21.1675 9 20.4654 9 19.7053C9 18.9968 9.12018 18.3269 9.36054 17.6957C9.6009 17.0515 9.93615 16.4911 10.3663 16.0145C10.7964 15.5378 11.3087 15.1643 11.9033 14.8937C12.4979 14.6103 13.1557 14.4686 13.8768 14.4686C15.0913 14.4686 16.097 14.9002 16.894 15.7633V14.7778ZM24.7913 14.7778V24.6908H21.3566V14.7778H24.7913ZM21.1289 10.971C21.1289 10.7005 21.1795 10.4493 21.2807 10.2174C21.3819 9.97262 21.5211 9.76006 21.6982 9.57971C21.8753 9.39936 22.0777 9.25765 22.3054 9.15459C22.5458 9.05153 22.7988 9 23.0645 9C23.3301 9 23.5768 9.05153 23.8045 9.15459C24.0449 9.25765 24.2536 9.39936 24.4307 9.57971C24.6078 9.76006 24.747 9.97262 24.8482 10.2174C24.9494 10.4493 25 10.7005 25 10.971C25 11.2415 24.9494 11.4992 24.8482 11.744C24.747 11.9758 24.6078 12.182 24.4307 12.3623C24.2536 12.5427 24.0449 12.6844 23.8045 12.7874C23.5768 12.8905 23.3301 12.942 23.0645 12.942C22.7988 12.942 22.5458 12.8905 22.3054 12.7874C22.0777 12.6844 21.8753 12.5427 21.6982 12.3623C21.5211 12.182 21.3819 11.9758 21.2807 11.744C21.1795 11.4992 21.1289 11.2415 21.1289 10.971Z" fill="white"/>
</svg>
