<svg width="19" height="18" viewBox="0 0 19 18" fill="none" xmlns="http://www.w3.org/2000/svg">
<path d="M15.5 16H3.5C2.95 16 2.5 15.55 2.5 15V3C2.5 2.45 2.95 2 3.5 2H8.5C9.05 2 9.5 1.55 9.5 1C9.5 0.45 9.05 0 8.5 0H2.5C1.39 0 0.5 0.9 0.5 2V16C0.5 17.1 1.4 18 2.5 18H16.5C17.6 18 18.5 17.1 18.5 16V10C18.5 9.45 18.05 9 17.5 9C16.95 9 16.5 9.45 16.5 10V15C16.5 15.55 16.05 16 15.5 16ZM11.5 1C11.5 1.55 11.95 2 12.5 2H15.09L5.96 11.13C5.57 11.52 5.57 12.15 5.96 12.54C6.35 12.93 6.98 12.93 7.37 12.54L16.5 3.41V6C16.5 6.55 16.95 7 17.5 7C18.05 7 18.5 6.55 18.5 6V1C18.5 0.45 18.05 0 17.5 0H12.5C11.95 0 11.5 0.45 11.5 1Z" fill="#666666"/>
</svg>
