<svg width="18" height="17" viewBox="0 0 18 17" fill="none" xmlns="http://www.w3.org/2000/svg">
<path d="M16.6498 5.54L11.8098 5.12L9.91983 0.67C9.57983 -0.14 8.41983 -0.14 8.07983 0.67L6.18983 5.13L1.35983 5.54C0.479829 5.61 0.119828 6.71 0.789828 7.29L4.45983 10.47L3.35983 15.19C3.15983 16.05 4.08983 16.73 4.84983 16.27L8.99983 13.77L13.1498 16.28C13.9098 16.74 14.8398 16.06 14.6398 15.2L13.5398 10.47L17.2098 7.29C17.8798 6.71 17.5298 5.61 16.6498 5.54ZM8.99983 11.9L5.23983 14.17L6.23983 9.89L2.91983 7.01L7.29983 6.63L8.99983 2.6L10.7098 6.64L15.0898 7.02L11.7698 9.9L12.7698 14.18L8.99983 11.9Z" fill="white"/>
</svg>
